<?xml version="1.0" encoding="utf-8"?>
<!-- Generator: Adobe Illustrator 25.2.1, SVG Export Plug-In . SVG Version: 6.00 Build 0)  -->
<svg version="1.1" id="レイヤー_1" xmlns="http://www.w3.org/2000/svg" xmlns:xlink="http://www.w3.org/1999/xlink" x="0px"
	 y="0px" width="65px" height="46px" viewBox="0 0 65 46" style="enable-background:new 0 0 65 46;" xml:space="preserve">
<style type="text/css">
	.st0{fill:#B49646;}
</style>
<g>
	<path class="st0" d="M10.7,41.4V46c8.7-5.6,17-6,21.8-6c4.7,0,13.1,0.4,21.8,6v-4.6c-8.7-5.6-15.9-6.1-21.8-6.1
		C26.6,35.3,19.4,35.8,10.7,41.4z"/>
	<path class="st0" d="M62.4,16.5c-1.2,0-2.3,0.9-2.6,2c-3.6,0.6-8.2,4.9-10,7.4c-1.5-3.7-0.8-10.9-0.1-15.1c0.2,0.1,0.4,0.1,0.7,0.1
		c1.5,0,2.6-1.2,2.6-2.6c0-1.5-1.2-2.6-2.6-2.6c-1.5,0-2.6,1.2-2.6,2.6c0,1.1,0.7,2,1.6,2.4c-1.7,5.3-5.3,14.8-9,13.9
		c-3.9-0.9-6.5-13.7-7.5-19.4c1.3-0.2,2.2-1.3,2.2-2.6C35.1,1.2,34,0,32.5,0c-1.5,0-2.6,1.2-2.6,2.6c0,1.3,1,2.4,2.2,2.6
		c-1,5.6-3.6,18.5-7.5,19.4c-3.6,0.8-7.3-8.6-9-13.9c0.9-0.4,1.6-1.3,1.6-2.4c0-1.5-1.2-2.6-2.6-2.6c-1.5,0-2.6,1.2-2.6,2.6
		c0,1.5,1.2,2.6,2.6,2.6c0.2,0,0.4,0,0.7-0.1c0.7,4.3,1.5,11.4-0.1,15.1c-1.8-2.6-6.3-6.9-10-7.4c-0.3-1.1-1.3-2-2.6-2
		c-1.5,0-2.6,1.2-2.6,2.6c0,1.5,1.2,2.6,2.6,2.6c0.8,0,1.5-0.3,2-0.9c3.2,3.6,5.6,10.4,6.1,18.1c8.7-5.6,16.9-5.4,21.8-5.4
		c4.9,0,13.1-0.2,21.8,5.4c0.5-7.8,2.9-14.5,6.1-18.1c0.5,0.5,1.2,0.9,2,0.9c1.5,0,2.6-1.2,2.6-2.6C65,17.7,63.8,16.5,62.4,16.5z"/>
</g>
</svg>
