<?xml version="1.0" encoding="utf-8"?>
<!-- Generator: Adobe Illustrator 25.2.1, SVG Export Plug-In . SVG Version: 6.00 Build 0)  -->
<svg version="1.1" id="レイヤー_1" xmlns="http://www.w3.org/2000/svg" xmlns:xlink="http://www.w3.org/1999/xlink" x="0px"
	 y="0px" width="70px" height="70px" viewBox="0 0 70 70" style="enable-background:new 0 0 70 70;" xml:space="preserve">
<style type="text/css">
	.st0{fill:#B49646;}
</style>
<g>
	<g>
		<g>
			<path class="st0" d="M35,64.9C18.5,64.9,5.1,51.5,5.1,35C5.1,18.5,18.5,5.1,35,5.1c16.5,0,29.9,13.4,29.9,29.9
				C64.9,51.5,51.5,64.9,35,64.9z M35,7.4C19.8,7.4,7.4,19.8,7.4,35c0,15.2,12.4,27.6,27.6,27.6c15.2,0,27.6-12.4,27.6-27.6
				C62.6,19.8,50.2,7.4,35,7.4z"/>
		</g>
		<g>
			<path class="st0" d="M35,70C15.7,70,0,54.3,0,35C0,15.7,15.7,0,35,0c19.3,0,35,15.7,35,35C70,54.3,54.3,70,35,70z M35,2.3
				C17,2.3,2.3,17,2.3,35C2.3,53,17,67.7,35,67.7S67.7,53,67.7,35C67.7,17,53,2.3,35,2.3z"/>
		</g>
		<g>
			<path class="st0" d="M35,10.7c-0.6,0-1.2-0.5-1.2-1.2V6.3c0-0.6,0.5-1.2,1.2-1.2c0.6,0,1.2,0.5,1.2,1.2v3.3
				C36.2,10.2,35.6,10.7,35,10.7z"/>
		</g>
		<g>
			<path class="st0" d="M22.3,14.1c-0.4,0-0.8-0.2-1-0.6l-1.6-2.8c-0.3-0.5-0.1-1.3,0.4-1.6C20.2,9,20.4,9,20.6,9
				c0.4,0,0.8,0.2,1,0.6l1.6,2.8c0.3,0.5,0.1,1.3-0.4,1.6C22.7,14.1,22.5,14.1,22.3,14.1z"/>
		</g>
		<g>
			<path class="st0" d="M13,23.4c-0.2,0-0.4-0.1-0.6-0.2l-2.8-1.6c-0.3-0.2-0.5-0.4-0.5-0.7c-0.1-0.3,0-0.6,0.1-0.9
				c0.2-0.4,0.6-0.6,1-0.6c0.2,0,0.4,0.1,0.6,0.2l2.8,1.6c0.3,0.2,0.5,0.4,0.5,0.7c0.1,0.3,0,0.6-0.1,0.9
				C13.8,23.2,13.4,23.4,13,23.4z"/>
		</g>
		<g>
			<path class="st0" d="M6.3,36.2c-0.6,0-1.2-0.5-1.2-1.2c0-0.6,0.5-1.2,1.2-1.2h3.3c0.6,0,1.2,0.5,1.2,1.2c0,0.6-0.5,1.2-1.2,1.2
				H6.3z"/>
		</g>
		<g>
			<path class="st0" d="M10.1,50.5c-0.4,0-0.8-0.2-1-0.6c-0.3-0.6-0.1-1.3,0.4-1.6l2.8-1.6c0.2-0.1,0.4-0.2,0.6-0.2
				c0.4,0,0.8,0.2,1,0.6c0.2,0.3,0.2,0.6,0.1,0.9c-0.1,0.3-0.3,0.5-0.5,0.7l-2.8,1.6C10.5,50.5,10.3,50.5,10.1,50.5z"/>
		</g>
		<g>
			<path class="st0" d="M20.6,61c-0.2,0-0.4-0.1-0.6-0.2c-0.3-0.2-0.5-0.4-0.5-0.7c-0.1-0.3,0-0.6,0.1-0.9l1.6-2.8
				c0.2-0.4,0.6-0.6,1-0.6c0.2,0,0.4,0.1,0.6,0.2c0.5,0.3,0.7,1,0.4,1.6l-1.6,2.8C21.4,60.8,21.1,61,20.6,61z"/>
		</g>
		<g>
			<path class="st0" d="M35,64.9c-0.6,0-1.2-0.5-1.2-1.2v-3.3c0-0.6,0.5-1.2,1.2-1.2c0.6,0,1.2,0.5,1.2,1.2v3.3
				C36.2,64.3,35.6,64.9,35,64.9z"/>
		</g>
		<g>
			<path class="st0" d="M49.4,61c-0.4,0-0.8-0.2-1-0.6l-1.6-2.8c-0.3-0.5-0.1-1.3,0.4-1.6c0.2-0.1,0.4-0.2,0.6-0.2
				c0.4,0,0.8,0.2,1,0.6l1.6,2.8c0.2,0.3,0.2,0.6,0.1,0.9c-0.1,0.3-0.3,0.5-0.5,0.7C49.8,61,49.6,61,49.4,61z"/>
		</g>
		<g>
			<path class="st0" d="M59.9,50.5c-0.2,0-0.4-0.1-0.6-0.2l-2.8-1.6c-0.3-0.2-0.5-0.4-0.5-0.7c-0.1-0.3,0-0.6,0.1-0.9
				c0.2-0.4,0.6-0.6,1-0.6c0.2,0,0.4,0.1,0.6,0.2l2.8,1.6c0.5,0.3,0.7,1,0.4,1.6C60.7,50.3,60.3,50.5,59.9,50.5z"/>
		</g>
		<g>
			<path class="st0" d="M60.4,36.2c-0.6,0-1.2-0.5-1.2-1.2c0-0.6,0.5-1.2,1.2-1.2h3.3c0.6,0,1.2,0.5,1.2,1.2c0,0.6-0.5,1.2-1.2,1.2
				H60.4z"/>
		</g>
		<g>
			<path class="st0" d="M57,23.4c-0.4,0-0.8-0.2-1-0.6c-0.2-0.3-0.2-0.6-0.1-0.9c0.1-0.3,0.3-0.5,0.5-0.7l2.8-1.6
				c0.2-0.1,0.4-0.2,0.6-0.2c0.4,0,0.8,0.2,1,0.6c0.2,0.3,0.2,0.6,0.1,0.9c-0.1,0.3-0.3,0.5-0.5,0.7l-2.8,1.6
				C57.4,23.4,57.2,23.4,57,23.4z"/>
		</g>
		<g>
			<path class="st0" d="M47.7,14.1c-0.2,0-0.4-0.1-0.6-0.2c-0.5-0.3-0.7-1-0.4-1.6l1.6-2.8c0.2-0.4,0.6-0.6,1-0.6
				c0.2,0,0.4,0.1,0.6,0.2c0.5,0.3,0.7,1,0.4,1.6l-1.6,2.8C48.5,13.9,48.1,14.1,47.7,14.1z"/>
		</g>
		<g>
			<path class="st0" d="M41.8,40.7c-0.2,0-0.4-0.1-0.6-0.2L34.4,36c-0.3-0.2-0.5-0.6-0.5-1V16.6c0-0.6,0.5-1.2,1.2-1.2
				c0.6,0,1.2,0.5,1.2,1.2v17.9l6.3,4.1c0.5,0.4,0.7,1.1,0.3,1.6C42.6,40.5,42.2,40.7,41.8,40.7z"/>
		</g>
	</g>
</g>
</svg>
