<?xml version="1.0" encoding="utf-8"?>
<!-- Generator: Adobe Illustrator 25.2.1, SVG Export Plug-In . SVG Version: 6.00 Build 0)  -->
<svg version="1.1" id="レイヤー_1" xmlns="http://www.w3.org/2000/svg" xmlns:xlink="http://www.w3.org/1999/xlink" x="0px"
	 y="0px" width="75px" height="70px" viewBox="0 0 75 70" style="enable-background:new 0 0 75 70;" xml:space="preserve">
<style type="text/css">
	.st0{fill:#B49646;}
</style>
<g>
	<g>
		<g>
			<g>
				<g>
					<path class="st0" d="M1.3,70c-0.4,0-0.7-0.2-1-0.4c-0.2-0.3-0.4-0.6-0.3-1l1.9-20.9c0.3-3.3,2.5-6.1,5.7-7.1l17-5.4
						c0.1,0,0.3-0.1,0.4-0.1c0.6,0,1.1,0.4,1.2,0.9c0.2,0.7-0.2,1.4-0.9,1.7L8.4,43c-2.1,0.7-3.7,2.6-3.9,4.9L2.7,67.5l69.7-0.2
						l-2-19.5c-0.2-2.3-1.7-4.2-3.9-4.9l-17-5.4c-0.7-0.2-1.1-1-0.9-1.7c0.2-0.6,0.7-0.9,1.2-0.9c0.1,0,0.3,0,0.4,0.1l17,5.4
						c3.1,1,5.4,3.8,5.7,7.1L75,68.6c0,0.4-0.1,0.7-0.3,1c-0.2,0.3-0.6,0.4-1,0.4H1.3z"/>
				</g>
				<g>
					<path class="st0" d="M37.5,45.2c-0.2,0-0.5-0.1-0.7-0.2l-12.5-7.5c-0.6-0.4-0.8-1.2-0.5-1.8c0.2-0.4,0.7-0.6,1.1-0.6
						c0.2,0,0.5,0.1,0.7,0.2l11.9,7.1l11.8-7.1c0.2-0.1,0.4-0.2,0.7-0.2c0.5,0,0.9,0.2,1.1,0.6c0.4,0.6,0.2,1.4-0.5,1.8L38.2,45
						C38,45.1,37.7,45.2,37.5,45.2z"/>
				</g>
			</g>
			<g>
				<path class="st0" d="M37.5,36.4c-8.8,0-15.8-11.2-15.8-20.5C21.7,6.8,28.5,0,37.5,0s15.8,6.8,15.8,15.9
					C53.3,25.2,46.3,36.4,37.5,36.4z M37.5,2.6c-7.5,0-13.2,5.7-13.2,13.3c0,8,6.1,17.8,13.2,17.8c7.1,0,13.2-9.8,13.2-17.8
					C50.7,8.3,45,2.6,37.5,2.6z"/>
			</g>
		</g>
		<g>
			<g>
				<path class="st0" d="M35.2,50.7c-0.5,0-1-0.3-1.2-0.8l-3.3-8.5c-0.1-0.3-0.1-0.7,0-1c0.1-0.3,0.4-0.6,0.7-0.7
					c0.2-0.1,0.3-0.1,0.5-0.1c0.5,0,1,0.3,1.2,0.8l3,7.8l2.8-0.1l2.9-7.7c0.2-0.5,0.7-0.8,1.2-0.8c0.2,0,0.3,0,0.5,0.1
					c0.3,0.1,0.6,0.4,0.7,0.7c0.1,0.3,0.1,0.7,0,1L41,49.9c-0.2,0.5-0.7,0.8-1.2,0.8H35.2z"/>
			</g>
			<g>
				<path class="st0" d="M43.1,70c-0.6,0-1.2-0.5-1.3-1.1l-3.1-18.3l-2.5,0.1l-3,18.2c-0.1,0.6-0.6,1.1-1.3,1.1
					c-0.9-0.1-1.4-0.8-1.3-1.5L34,49.2c0.1-0.6,0.6-1.1,1.3-1.1h4.5c0.6,0,1.2,0.5,1.3,1.1l3.3,19.3c0.1,0.3,0,0.7-0.2,1
					c-0.2,0.3-0.5,0.5-0.8,0.5L43.1,70z"/>
			</g>
		</g>
	</g>
	<g>
		<g>
			<path class="st0" d="M14.4,70c-0.3,0-0.7-0.2-0.9-0.5c-0.2-0.3-0.3-0.6-0.3-1l1.4-13.5c0.1-0.7,0.6-1.2,1.3-1.2
				c0.8,0.1,1.4,0.7,1.3,1.5l-1.4,13.5c-0.1,0.7-0.6,1.2-1.3,1.2L14.4,70z"/>
		</g>
		<g>
			<path class="st0" d="M60.4,70c-0.7,0-1.2-0.5-1.3-1.2l-1.4-13.5c-0.1-0.7,0.4-1.4,1.2-1.5c0,0,0,0,0,0c0.8,0,1.3,0.5,1.4,1.2
				l1.4,13.5c0,0.4-0.1,0.7-0.3,1c-0.2,0.3-0.5,0.4-0.9,0.5L60.4,70z"/>
		</g>
	</g>
</g>
</svg>
