<?xml version="1.0" encoding="utf-8"?>
<!-- Generator: Adobe Illustrator 25.2.1, SVG Export Plug-In . SVG Version: 6.00 Build 0)  -->
<svg version="1.1" id="レイヤー_1" xmlns="http://www.w3.org/2000/svg" xmlns:xlink="http://www.w3.org/1999/xlink" x="0px"
	 y="0px" width="325px" height="130px" viewBox="0 0 325 130" style="enable-background:new 0 0 325 130;" xml:space="preserve">
<style type="text/css">
	.st0{fill:#323232;}
</style>
<g>
	<g>
		<g>
			<g>
				<path class="st0" d="M31.4,27.6l-0.2,0.7l0,0.4l-0.1,0.1l0,0.1L31,29.1l-0.3,0.1l-0.3,0.3l-0.3,0.3l-0.4,0.4l0,0.1l0,0.1
					l-0.1,0.4l0.1,0.2l0.1,0.3l-0.1,0.6l-0.2,0.1l-0.1,0.2l-0.4,2.2l0,0.2l-0.1,0.1l-0.4,2.6l-0.2,0.2l-0.1,0.5L28,38.4l-0.4,1.7
					l-0.3,2L27,43.4l0,0.3L27,44.2l0,0.1l-0.1,0.5l0,0.6l0,0.1l0,0.2l-0.3,1.7l0,0.1l0,0.1l-0.1,0.5l0,0.1l-0.4,2.5l-0.1,0.2
					L25.6,52l0.1,0.2l0,0.2l-0.2,0.1l-0.2-0.1l-0.1,0.2l-0.1,0c-0.6,3.1-1.3,6.1-2.1,9.1l1.8-2.7l0.1-0.3l0.4-0.8l0.5-0.6l0.2-0.5
					l0.4-0.1l3.8-5l0.1-0.6l0-0.1l0.2-0.3l1-1.1L32,49l1.5-1.8l0.3-0.4l3.7-4.2L38,42l0.6-0.7l0.1-0.2l1-1.1l0.4-0.4l0.1-0.2
					l1.6-1.8l0.3-0.2l1.8-2.1l0-0.2l0.2-0.1l0.1,0l0.5-0.6l0.1-0.2l0.6-0.7l0.5-0.3l2.3-2.5l0.4-0.8l0.2-0.1l0-0.1l0.9-0.7l0.3-0.3
					l2.2-2.3l0.3-0.5l0.1,0l1.4-1.4l0.3-0.3l0.3-0.3l0.2-0.3l2.7-2.5l0-0.1l0.1,0l0.7-0.4l0.3-0.3l0.1-0.2l3.8-3.5l0.4-0.2l0.6-0.5
					l0-0.1l0.5-0.6l0.8-0.6l0.2-0.3l0,0.1l0.5-0.6l0.3-0.3l0.5-0.4l1.1-0.7l0.4-0.4l1.1-0.7l1.2-1l0.2-0.3l0-0.2l0.2,0.1l0.1,0
					C71.6,9,72.8,8,74.2,6.8c2.4-1.9,5.4-3,8.3-4.3l0.3-0.2l0.1,0c0.3-0.1,0.4-0.2,0.6-0.2L83.6,2l2.6-1.2l0.3-0.1l1.1-0.4l0.2-0.2
					L87.9,0l0.2,0.1l0.1,0.3L88,0.5l-0.4,0.1L86.7,1L86,1.5l-0.2-0.1l-0.1,0.1c0,0.1,0,0.3-0.1,0.4c-3.5,1.8-7.4,3.3-10.9,5.6
					l-1.3,0.9l-1.1,1l-1.2,1.1l-0.4,0.5l-0.5,0.2l-0.7,0.4L69,11.8c-1.7,1.3-3.2,2.7-4.8,4.1l-0.1,0l-0.5,0.6L63,17l-1.9,1.7
					l-0.6,0.9l-1.7,1.8l-0.5,0.3l-0.8,1l-0.9,0.7l-0.5,0.3c-1.2,1.1-2.2,2.3-3.3,3.4l-0.4,0.7l-0.5,0.6l-0.6,0.5l-0.5,0.5l-0.2,0.1
					l-2.6,2.9l-0.9,1.3l-0.5,0.3l-0.1,0l-0.2,0.3L45.9,35l-0.8,0.6L41,40.4l-0.3,0.5l-0.2,0.5l-0.2,0.5l-0.3,0l0,0.4l-0.3,0.3
					l-0.1,0.2l-1.1,0.7l-1.2,1.5l-1.9,2.8L35,48.4l-0.8,1l-0.1,0.3l-0.4,0.5l-0.2,0.1l-0.6,0.6l-0.2,0.4l-0.9,1l-0.7,1l-1.1,1.4
					l-0.3,0.1l0,0.3l-0.6,0.6l-0.3,0.5l-0.5,0.7l0.1,0.5l0.1,0.5l-0.1,0.5l-0.5,0.5l-0.5,0.3L26.9,59l-0.1-0.3l-0.1,0l-0.8,1
					l-0.3,0.6l-0.1,0.2l-0.3,0.3l-0.5,0.6l-0.5,0.6l-0.2,0.2l-0.4,0.7l-0.5,0.6l-0.1,0.3L22.9,64l-0.2,0.1l-0.3,0.5l0.3,0.1l0.7,0.7
					c2,1.6,3.6,3,4.3,3.5c0.9,0.9,1.9,1.6,2.9,2.4l0.4,0.1l0.6,0.2l0.4,0.4l-0.2,0.1c0.4,0.3,0.7,0.6,1.1,0.8l2,1.1l0.5,0.2l0.1,0.3
					l2.7,1.8l0.1-0.2l0.1,0.2l0.4,0.3l1.2,0.8l0.2,0.2l0.9,0.5l0.3,0.3l2.8,1.5l0.1,0l0.2,0.1l-0.1,0c0,0,0.1,0,0.1,0l0.8,1l1.2,0.2
					l0.3,0.2l1.2,0.6l0.7,0.2l0,0.1l0.8,0.3l0.3,0.5l0.7,0.4l0.5,0.2c0.1,0,0.3,0.1,0.5,0.2l0.3,0l0.3,0.1l0.6,0.4l0.3,0l0.4,0.2
					l0.5,0.3l1.5,0.9l0.7,0l0.2,0.1l0.5,0.1l0.2,0.1l0.4-0.2l0.2,0.1l0.3,0.4l0.4,0.2l1,0.3l0.1,0c0.6,0.2,1.3,0.6,2,0.9l0.1,0
					l0.9,0.3l1.1,0.3l0.8,0.1l1.9,0.2l3.7,1.2l1.4,0.2l1.9,0.5l0.9,0.1L76,91l1.5-0.1l0.2,0.2l0.3,0.1l0.9,0.2l0.4,0.1l0.5,0.2
					l3,0.6l1,0.1l1.1,0.1l0.6,0l0.5,0.2L85.7,93l-0.7,0c-0.1,0.1-0.3,0.1-0.4,0l-1.4,0.2l-0.5-0.1l-0.5,0.2l-0.1,0L81.9,93l-0.2-0.1
					l-0.7-0.2l-0.2-0.1l-3.8-0.6l-3-0.7l-0.2,0.1l-0.2,0.1l-0.2-0.2L73,91c-2.6-0.5-5.3-1-8-1.7l-1-0.1l-0.3,0.1L63.7,89l-0.4-0.1
					l-0.2-0.1l-3.7-1l-0.6-0.1l-1.4-0.5l-1.2-0.2l-1-0.3l-0.7-0.2L53.8,86L52,85.4l-0.1,0l-0.7,0l-0.6,0l-0.6-0.2l-0.8-0.3l-0.5-0.2
					l-0.3-0.4L48,83.8l-0.3-0.3c-2.1-0.9-4.3-1.9-6.1-3.1l-0.7-0.2l-0.1-0.2l-1.1-0.6l-0.8-0.3l-1.1-0.5l-2.3-2l0.1,0
					c-2.3-1.6-4.6-3.3-6.8-5l-0.4,0l-0.2-0.1L28,70.8l-0.2-0.2l-0.2-0.1L25,68.3l-0.2-0.1L24.5,68c0-0.1-0.1-0.1-0.1-0.2l-0.6-0.2
					l-0.2-0.2L23.3,67L22,65.9L21.7,66l-0.1,0c-0.1,0.5-0.3,1-0.4,1.5l0.1,0.3l0.1,0.7l-0.2,0.3l-0.5,0.8l0,0.4l-0.2,0.5l-0.4,0.7
					L19.9,72l-0.1,0.5l-0.2,0.9l-0.1,0.8l-0.1,0.4l-0.1,0.6l0,0.4l0.3,0.5l-0.1,0.3l-0.7,0.4l-0.3,0.6l-0.6,0.8
					c-1.1,3.2-2.3,6.3-3.5,9.4l-0.2,1.4l-1.4,2.9l-0.1,0.4l-0.1,0l-1.5,3.6l0.1,0l0,0.1l-0.2,0.6l-0.9,1.7l-0.5,1l-0.2,0.5l0,0.1
					l-0.4,1l-0.3,0.6l-0.1,0.6l0,0.4l-0.3,0.3l-0.3,0.2l-0.1,0.4L8,103.8l0.1,0.3L8,104.2l0,0.1l-0.2,0.5l-0.6,0.8l-0.4,0.2
					l-0.3,0.3l-0.1,0l-0.9,1.9L5,109.9l-0.3,1.3l-0.3,0.6l-0.5,0.3L3,113.6l-1.4,0.9l-0.4,0L1,114.2l0-1.1l-0.1-0.3l-0.1-1.3
					l-0.3-0.3l-0.3-0.4l0,0.1L0,110.8l0.3-0.1l0.1-0.3l-0.1-0.5l-0.1-0.7l0.4-1.7l-0.3-2.3l0.2-0.9l0-1c0-0.8,0.2-1.7,0.6-2.7l0-0.1
					l0.1-0.5l0.1,0l0.4-1.1l0-0.1l0.3-0.6L1.8,98l0.1-0.3l-0.1-0.5l0.2-0.5l0-0.1l0-0.1l0.1-0.2l0-0.2L2,96.2l0.1,0l0.2-0.3l0.1,0
					l0.1-0.1l0.1-0.2L3,94.9l-0.1-0.3L3,94.2l0.3-0.3l0.5-0.4l0.4-0.6l0-0.1l0.7-1.4l0-0.1l0.3-0.8l0.5-1l2.2-3.3l0.6-1.2l0.4-0.6
					l0.3-0.6l0.2-0.2l0.5-1.3l0.5-0.5l0.3-0.5l1-1.8l0.2-0.4l1.3-2.1l0.1-0.4l0.2-0.3l0.3-0.6l0.8-1.3l0.7-1.4l0.1-0.4l0.7-1.1
					l0.9-1.6l0.6-0.5l0.4-0.4l0.1,0l0.6-1.3l1.4-1.9L20,65.6l0.1,0l0.3-0.5l0-0.1c-0.6-0.3-1-0.5-1.4-1L19,64l-0.3-0.3l0-0.1
					l-0.6-0.5l-0.5-0.6l-0.2-0.6l-0.5-0.5l-0.2-0.3l-0.1,0l-0.2,0L16,61l-0.1,0l-0.2-0.1l-0.4-0.4l-0.1,0l0-0.1l0-0.1L15,59.9
					l-0.3-0.3l0-0.1l-0.1,0l-0.5-0.7l-0.1-0.5c-0.6-0.5-0.8-1.1-1-1.5c-0.1,0-0.1,0-0.1,0l0.1,0L13,56.5c-0.1-0.2,0-0.4,0.3-0.5
					l0-0.1l0.1-0.4l0.2-0.3l0.4,0l0.5,0.5l0.3,0.3l0.3-0.3l0.6-0.3l1.1,0.6l0.7,1.1l0.2,0.4l0.2,1l0,1.2l0.1-0.1l0.1,0.2L18,59.8
					l0,0.2l0.2,0.3l0.2,0.3l0.6,0.8l0.8,0.8l0.7,1l0.5,0.4l1-3.6l0,0.1l0.2-1.2l-0.1-0.2l0.2-0.2l0-0.4l0.4-1.2l0-0.3l0.5-0.9l1-3.9
					l0.5-2.9l0-0.7l0.3-0.1l-0.1-1l0.2-1.6l-0.1-0.2l0.2-0.3l0.4-2l0-1.4l-0.2-0.4l0.4-0.7l-0.2-0.4l0.6-2.6l0-0.7l0.1-1.1l-0.1-0.7
					L26,35.6l-0.2,1.2l-0.2,0.2L25.2,37l-0.2-0.3l0.1-0.2l0.8-1.6l-0.1-0.3l0.1,0l0.1-0.4l0.1-0.6l-0.1,0l-0.6,0
					c-0.3-0.1-0.5-0.9-0.5-0.9l0.2-0.5l0.1-0.6l0.7-1.6l0.1-0.8l0-0.7l0.2-0.6l0.2-0.5l0.2-0.1l0-0.2l0.1-0.2l0.1-0.8l0.4-0.4
					l0.1-0.3l0.5-1.6l1.3-1.4l0.2,0.1l0.6,0.3l0.5,1.5l-0.1,2l-0.2,1.2l0.1-0.2l0.1,0l0,0.1l0.3-0.3l0-0.1l0.3-0.2l0.2-0.1l0.3,0.1
					l0.3,0.2L31.4,27.6z M15.2,75.2c-0.7,1.1-1.4,2.2-2,3.3l-0.7,1.1L12.4,80l-2,3.9l0,0.3l-0.3,0.2l-1.5,2.8l-0.3,0.6l0,0.4l0,0.3
					L7.8,89l-0.4,0.7l-0.8,1.7l0,0.1l-0.2,0.7l-0.2,0.4l-0.1,0.6l0,0.4l-0.1,0.2l-0.3,0.6l-0.4,0.9L4.3,97l-0.7,2.4l-0.4,2.1
					l-0.4,1.2c-0.1,0.8,0,1.7,0,2.6l0.1,0l-0.1,0.3l-0.1,0l0.1,0.3l0.7,1l0.1,0.3L4,107l2.2-4.3l0.5-1.2l2.8-5.2l0.6-1.3l0.3-0.4
					l0.6-1.5l0.3-0.6l2-5.6c0.1-0.2,0.1-0.4,0.2-0.6l0.4-1.1l0.3-0.6c0.5-1.4,1-2.7,1.5-4.1l0-0.6l0.4-0.4C17,76.1,18,73,19,69.6
					l-0.4,0.5l-0.3,0.5L18,71.2l-1.1,1.4L15.2,75.2z"/>
				<path class="st0" d="M59.8,65.1l0.1,0.3l-0.2,0.4l-0.1,0.3c-0.1,0,0,0.1,0,0.1l0.1,0.2L59.3,67l0.4,1.6c0,0.1,0.1,1,0.5,1.3
					c0.5,0.3,0.3,0.4,2.1,0.5l1.2,0l0.8-0.2l0.9-0.4l4.5-2.3l0.8-0.6l2.3-1.5l0.4-0.5l0.2-0.2l0.1,0l3.5-2.6l0.3-0.1l0.4-0.4
					l0.5-0.3l1.9-1.3l0.2-0.1c2.1-1.6,2.8-2.4,4.8-4l1.3-0.9l0-0.1l0.3-0.3l1.1-0.7l1.1-0.8l0-0.1l0.2-0.1l0.7-0.6l0-0.1l2.9-3.1
					l0.3-0.1c0.4-0.4,0.8-0.8,1.2-1.3c0.1-0.2,0.3-0.2,0.4,0l0-0.1l0.2-0.3l0.3,0l0.4,0.5l-0.3,0.2L94.7,48l-0.3,0.2l-1.2,1.4
					L93,50.2l-0.3,0.1l-0.2,0.2c-0.5,0.5-1,1-1.5,1.5l0,0.1l-0.4,0.4l-0.2,0.3l-0.2,0.1l-1.8,1.6l0,0.1L88,54.6L87.5,55l-0.1,0.1
					L86.7,56l-2.2,1.7c-0.7,0.6-1.3,1.3-2,1.8l-0.1,0.2l-2.8,2.4l-0.2,0.3l-0.2-0.2l-0.6,0.6l-0.7,0.3l-0.4,0.4l-0.1,0
					c-0.7,0.6-1.5,1.2-2.3,1.7l-0.8,0.8l-1.7,1.5l-0.5,0.3l-0.7,0.3l-1,0.6L69.6,69l-0.2,0.2l-0.2,0.3l-0.8,0.4l-0.1,0
					c-0.7,0.5-1.6,0.9-2.4,1.3l-0.1,0.2l-0.3,0.2l0.1,0l-1.2,0.6l-0.4,0l-0.6,0.4l-1.6,0.2l-1.6-0.3L59,71.7L58.4,71L58,70.1
					L57.7,69l0-0.1l-0.1-0.1l-0.1-0.5l0-1.7l0.2-0.9l0.2-1.3l0.2-0.7l0.1-0.2l0.1-0.6l0.3-0.4l0.1-0.5l0.2-0.7l0.1-0.2l0.6-0.5
					l0.2-0.4l0.4-0.3l0.4-0.5l0.1-0.1l0.5-0.8l0.5-0.6l0.3-0.8l0.2-0.3l0.2-0.5l0.2-0.3l0.4-0.2l0.1-0.2l0.2-0.4l0.5-0.3l0.3-0.2
					c1.1-1.4,2.3-2.9,3.7-4.2l0.1-0.2l0.5-0.6l0.8-0.5c0.1,0,0.1,0,0.1-0.1l0.6-0.7l0.4-0.4l0.2-0.1l0.9-0.4
					c0.6-0.4,1.3-0.9,1.9-1.3l0.5-0.5l0.6-0.2l0.4-0.2l0.2,0.1c0.5-0.1,1-0.3,1.5-0.3l0-0.1l0.2-0.1l0.1,0l0.2-0.1l0-0.1l0.4,0
					l0-0.1l0.1,0l0,0.1l0.2,0.1l0.2-0.1l0.1,0.1l0.1,0l0.4,0.1l0.1,0c0.4,0.2,0.7,0.3,0.9,0.6l0.2,0l0,0.1l0.1,0l0,0.1l0.1,0.3
					l0.1,0.2l0,0.5L79.8,47l0.1,0.4l0,1l-0.3,1l-0.5,0.8l-0.6,0.6l-0.5,0.5l-2,1.8l-0.3,0.3l-0.4,0.2c-1.2,1.4-2.6,2.8-4,4l0,0.1
					l-1.6,1.4l-0.7,0.8l-1.5,1.2l-1.1,0.8l-1.7,0.8l-1,0.3l-0.5,0.1l-0.4-0.1L62.7,63l0.1-0.2l0.2-1l0.7-1.1l0.8-0.5L65,60l0.5,0
					l0.6,0l0.8-0.2l0.7-0.3l0.8-0.5l0.3-0.1l0.1-0.2l1.7-1.1l1.5-1.3l0.7-0.7l0.2-0.5l0.8-0.5l0.1-0.3l0.9-0.6l0.2-0.3l0.7-0.9
					l2.3-3.2l0.2-0.4l0-0.5l0.1-0.2l0.1-1.1l-0.1,0l-0.1-0.1l-0.2-0.3l-0.4-0.3l-0.5-0.1l-0.5,0l-0.7,0.2L75,46.5l-0.3,0
					c-1.6,0.9-3.3,2.3-4.2,3.1l-0.7,0.6l-0.1,0.2l-0.3,0.3l-0.3,0c0,0.1,0,0.1-0.1,0.1l0,0.1l-0.4,0.2l-0.1,0.2l-0.1,0l-1.2,1.2
					l-0.6,0.8L66.4,54l-0.6,0.4l-0.2,0.2c-0.5,0.5-0.9,1.1-1.3,1.7L64,56.8l-0.6,1l-0.3,0.6l-0.5,0.8l-0.7,1.1l-0.6,1.3l-0.1,0.2
					l-0.2,0.7l-0.3,0.8l-0.5,0.8L59.8,65.1z"/>
				<path class="st0" d="M89.6,56.1l0.1-0.4l0-0.1l0.2-0.7l0.2-0.9l0.4-1.2l0.1-0.4l0.9-2.2l0.2-0.6l0.1-0.3l0.4-1.6l0.4-1.2
					l0.3-1.1l0.1-0.8L93,44.1l-0.1,0l0-0.1l0.1-0.2l-0.4-1l-0.2-1.3l0-0.4l0.1-1.6l1-1.1l0.7-0.3l0.8,0.2l0.2,0.4l0.1,0.5l0.2-0.2
					l-0.1,0.2l-0.1,0l-0.1,0.2l0,0.4c0,0.1,0.1,0.1,0.1,0.2c0.1,0.8-0.2,1.7-0.4,2.5l0.1,1.8l-0.3,0.8l-0.3,0.4L94,46.7l-0.2,0.9
					l-0.2,0.7L93.5,49l-0.4,0.5l-0.1,0.3l0,0.4l0,0.1l-0.2,0.2L92,52.8l0,0.6l-0.5,1.2l-0.1,1L90.6,58l-0.1,0.6L90,59.8l0,0.1l0,0.4
					l-0.1,0.1l-0.1,0.4l-0.1,0.6c0.3-0.3,0.3-0.6,0.5-1l0.1-0.3l0-0.1l0.1-0.4l0.3-0.4l0.1-0.2l0.3-0.6l0.3-0.4l0.4-0.7l0.3-0.3
					c0.6-1,1.3-2.1,1.9-3.1l0.2-0.5l0.1-0.2l0.5-0.5l0.3-0.4l0.8-1l0.1-0.2l1.2-1.4l0.3-0.2c0.5-0.4,0.9-0.9,1.4-1.3
					c0.3-0.3,1.2-0.9,2-1.1l0-0.1l1.2-0.3l0.6,0.4l0.8,0.4l0.5,1l0.1,0.5l0.1,0.7l0.1,0.8l0.1,0.5l0.1,0.5l0,1.7l0,0.1l0.6,0.5
					l0.4,0.7l0.2,0.1l-0.1,0.2l0,0.5l0.1,0.5l0.4,0.4l0.3,0.2l0.6,0.3c0.9-0.2,2-0.6,3.1-1.1l1.2-0.9l0.4-0.2l0.8-0.5l0.4-0.2
					l1.1-0.8l0.8-0.8l0.6-0.2l0.5-0.3l1-0.7c0.7-0.5,1.4-1.1,2-1.7l0.5-0.6l0.3-0.2l1.3-1.2l0.4-0.4l0.4-0.6l0.5-0.5l1.6-1.3
					l1.9-1.9l0.2-0.3l0.8-0.8l0.2-0.1l0-0.1l0.2-0.1l0.5-0.5l0.1-0.2l0.4-0.1l0.3,0.2l0.1,0.3l-0.2,0.2l-0.3,0.2
					c-0.9,0.9-1.7,1.9-2.6,2.8l-0.4,0.7l-0.4,0.3l-0.4,0.4l-0.1,0l-0.6,0.7l-0.1,0.2l-0.2,0.1c-0.1,0-0.1,0.1-0.2,0.2l-0.1,0.2
					l-0.3,0.2l-0.1,0c-0.5,0.6-1.2,1.1-1.8,1.7l-0.9,0.9l-2.4,2.1l-0.2,0.1l0,0.1l-0.7,0.9l-0.6,0.6l-0.9,0.4l-0.8,0.8l-0.4,0.3
					l-0.5,0.3l-0.7,0.3l-0.4,0.2l-0.2,0.2l-0.2,0.1l-0.2,0.1c-0.5,0.3-1,0.5-1.5,0.7l-0.8,0.3l-0.3,0.3l-0.2,0.1l-0.6,0l-0.4,0.2
					l-0.5,0.1l-0.1,0c-0.8,0.3-1.6-0.2-2.4-0.3c-0.4-0.1-0.8-0.3-1.1-0.6l-0.1-0.2c-0.2-0.3-0.2-0.6-0.3-1l-0.2-0.6l0.1-0.8l0-1.2
					l-0.1,0l0.1-0.2l0-2.5l-0.1,0l-0.2-0.1l0.1-0.5c-0.1-1-0.5-1.7-1.4-1.7c-0.4,0-0.6-0.1-1.1,0.2l-0.6,0.5l-0.4,0.5
					c-0.1,0,0,0.1-0.1,0.1l-1.1,1.3l-0.1,0.2L98.2,51l-0.8,1.3L97,52.7l0,0.4l-1.6,2l-0.2,0.1l-0.4,0.5l-0.2,0.1l-0.1,0.6L93.9,57
					l-0.2,0.2l-0.4,0.5L93,58.2l-0.2,0.3L92.6,59l-0.5,0.7l-0.5,0.6c-0.7,1.2-1.4,2.4-2.1,3.7l-0.2,0.5l-0.1,0l-0.4,0.7
					c-0.1,0-0.1,0-0.1,0.1l0,0.1l-0.2,0.1l0.1,0.1l0,0.1l-0.2-0.1l-0.1,0.3L88,66l-0.6-0.1L87,65.4l-0.3-1.3l0.2-1.2l0.2-0.5
					l0.5-0.8l0.7-0.6l-0.1-0.2l0.1,0l0.1,0l-0.1-0.3l0.2-0.2l0.1-0.6l0.1-0.9l0.2-0.5l0-0.4l0.6-1.7L89.6,56.1z"/>
				<path class="st0" d="M100,123.3L100,123.3l-0.1-0.6l0.1-0.2l-0.2-0.8l0.1-0.8l-0.2-0.8l-0.1-0.9l0.1-0.6l0.6-1l0-0.1
					c0-0.1,0-0.1,0-0.2l0-0.4l0.1-0.4c0.2-1.5,0.5-3,0.9-4.6l0-0.7l0.2-0.4l0-0.9l0.1-0.5l0.2-0.7l0-0.4l0.1-0.5l0.4-0.9l0.7-1.1
					l1.3-3.7l1.7-3.9c0.2-0.5,0.3-0.9,0.6-1.5l0-0.2l0.2-0.7l0.6-0.9l0.3-1l0.6-1l0.5-0.6l0.2-0.4l0.2-0.5l0.3-0.3
					c0.6-1.1,1.3-2.5,2-4.1l0.5-0.6l0-0.6l0.6-0.7l0.1,0l0.5-0.5l1.2-2.2l0.2-0.7l0.3-0.5l0.5-0.8l0.7-0.9l0.3-0.5l0.3-0.6l0.9-1.1
					l1.3-2.1l0-0.4l-0.1-0.3l0.2-0.1l0.3-0.2c1.1-1.7,2.2-3.3,3.3-4.7l0-0.1l0.2-0.5l0.2-0.2l0.5-0.3c0.1-0.2,0.3-0.4,0.5-0.6
					l2.5-3.1l0-0.4l0.1-0.2l0.3-0.1l0.6-0.6l0.6-1.1l1.4-1.4l0.1,0c1.3-1.5,2.5-3,3.8-4.5l0.1-0.4l0.5-0.3l3.1-3.4l0.3-0.6l0.1,0
					l0.2-0.3l0-0.3l0.2-0.2l0.5-0.1l0.2-0.2l0.5-0.8l0.3-0.4l0.5-0.4l0.7-0.5L141,48l0-0.1l0.9-2.2l0-0.1c0.2-0.5,0.2-1,0.4-1.6
					l0.6-2.4l0.1-0.3l0.3-1.1l0.3-1.8l0.1,0l0.2-1.4l0.1-1.6l-0.1-0.3l-0.3-0.3l-0.1,0l-0.1,0.1l-0.2,0.1l-0.3,0l-0.6,0.5l-0.5,0.1
					l-0.1,0.2l-0.1,0l-0.3,0.3l-0.1,0.2l-0.1,0.2l-0.4,0.4l-0.3,0l-0.1,0.2l-1.5,1.7l-0.1,0.2l-0.2,0.1l-1.8,2l-0.2,0.1l-0.3,0.3
					l-0.4,0.3l-1.2,1.3l-0.6,0.9l-1.8,1.4l-0.1,0.2l-0.2,0.2l-0.4,0.2l-0.4,0.4l0,0.1l-0.2,0.1l-1.7,1.8l-0.4,0.7l-0.3,0.4l-0.1,0.2
					l0,0.4l-0.1,0.1l-0.5,0.1l-0.4,0.2l-1.1,0.5l-0.2,0.1c-1.2,0.9-2.4,1.5-3.4,1.7c-0.3,0.1-0.4,0-0.5-0.2l-0.4-0.3l-0.4-0.4
					l-0.1-0.4l0-0.4l-0.1-0.9l0.1-0.2l0-0.1l0.2-0.5c0-0.1,0-0.1,0.1-0.2c0.1-0.2,0.2-0.3,0.2-0.5l0.1,0l0.5-1.2l0.3-0.4l1-1.6
					l0.1-0.3l0.2-0.2l0.5-0.8l0-0.1l0.3-0.5l0-0.1l0.5-0.6l0.4-1l0.3-0.4l0.2-0.1l0.4-0.4l0.3-0.3l0.4-0.7l0.1,0l0.2-0.1l0.1-0.1
					l0.1-0.2l0.2-0.1c0.7-0.8,0.7-0.9,1.4-1.7l0.2-0.4l1.2-1.3l0.2-0.1l0.2-0.3l0.6-0.6l0.2-0.2l1.2-1.3l0.4-0.5l0.3-0.6l0.4-0.4
					l0.3-0.3l1.1-0.4c1.6-1.4,3.3-2.6,3.9-2.6c0.3,0,0.8-0.1,1.1,0c0.3,0.1,0.6,0.6,0.9,0.7c0.2,0.1,0.7,1.9,0.6,2.1l-0.1,0.2
					l0.1,0.5l-0.1,0.7l-0.1,0.4l0.4-0.4l1.6-0.8l0.9-0.4l0.5-0.1l0.4,0l0.2,0.1l0.1,0.5l0.1,0.9l-0.3,0.8l-0.2,0.5l-0.2,0.4
					l-0.3,1.5l-0.5,1.6l-0.6,3.2l0.1,0.5l-0.1,0.8l-0.4,0.9l-0.1,1.1l-0.2,0.5l-0.2,0.7l0,0.1l3.4-2.8l0.5-0.6l0.4-0.3l1.2-0.7
					l1.7-1.4c0.6-0.5,1.3-1,2-1.4l0.3-0.4l0.3-0.1l0.1-0.2l1.6-0.8l0.1,0c0.1,0,0.1,0,0.2-0.1l0.1-0.1l0,0.1l0.7-0.4l0.2-0.2l0.1,0
					c0-0.1,0.1-0.1,0.2-0.1l0-0.1L157,36l0.4-0.3l0.3-0.3l0.5-0.2l0.7-0.4l1.1-0.4l1-0.6c0.1,0,0.2,0,0.3,0.1l0.2-0.3l0.2-0.1
					l0.3,0.1l0.2,0.4l-0.1,0.2l-0.2,0.1l-0.4,0.1l-0.3,0.3l-0.1,0l-0.2,0.2l-0.8,0.4l-0.3,0.1l-0.8,0.3l-2.1,1.2l-0.4,0.5l-0.6,0.2
					l-0.5,0.3l-1.3,0.7l-0.4,0.3l-1.3,1.2l-0.3,0.4l-1.3,0.7l-0.7,0.7l-1.2,0.7c-1.1,0.9-1.9,1.6-2.8,2.5l-0.4,0.5l-0.7,0.7
					l-0.4,0.5l-0.5,0.3l-0.1,0l-1.2,1.2l-0.4,0.7l0,0.1l-0.2,0.5l0,0.8l0.1,0.2l-0.2,0.1l-0.4,0.4l-0.2,0.2l-0.2,0.5l-0.1,0.4
					l-0.1,0.2l-0.1,0l-0.5,1.4l-2.3,6.1l0,0.1l-0.5,1.4l-0.1,0.1l-0.3,0.6l0.1,0.2l-0.9,2.2l-0.1,0c-0.2,0.7-0.5,1.4-0.8,2.2
					l-0.4,1.1l-0.9,2.2l-1.9,4.4l0,0.2l-0.1,0l-1,2.3l-0.1,0.3l-0.5,1.5l-2.3,5.2l-1,2.5l-2.8,6.4c-0.9,2.1-1.9,4.2-2.8,6.3l0,0.4
					l-2,4.5c-0.5,2.1-1.6,4-2.5,6c-0.6,1.5-1.6,2.9-2.3,4.5l-1,1.4l-0.2,0.6l-0.5,1.3c-0.8,1.8-2,3.2-2.6,5.1l-0.3,0.3l-0.4,1
					l-0.4,1.4c-0.1,0,0,0.1-0.1,0.1c-1,1.3-1.9,2.7-3.4,3.5L105,130l-1.9,0l-0.2-0.2c-0.7-0.2-1.3-0.8-1.9-1.6
					c0-0.1-0.1-0.2-0.2-0.4c-0.3-0.6-0.5-1.3-0.6-1.9l-0.4-1.5l0.2-0.3C100,123.7,100.1,123.4,100,123.3z M136.4,60.9l0-0.2l0.7-1.6
					l0.1,0l0-0.1l0.2-0.7l0.8-2.1l0.4-1.2l1.3-3.1l0.4-1.8l-0.1,0.1c-0.9,0.8-1.7,1.6-2.5,2.5l-0.1,0.3l-0.4,0.4l-0.2,0.4l-1.2,0.9
					l-2.3,2.5l0,0.1l-0.1,0l-0.2,0.2l0,0.1l-0.3,0.3l-0.1,0.2l-0.3,0.1l-1.6,1.9l-0.3,0.6l-0.4,0.2l-2.6,3.2l-0.4,0.7l-0.1,0
					c-2.3,3-4.5,6.1-6.6,9.2l-0.1,0.2l-0.3,0.8l-0.7,0.7c-1.7,2.6-3.3,5.1-4.7,7.7l-0.1,0.2l-0.3,0.8l-0.4,0.5l-0.9,1.5l0,0.3
					l-0.3,0.6l-0.1,0.2l-0.6,1.3l-0.3,0.6l-0.3,0.3l-0.7,1.8l-1.4,2.9l-1.7,3.1l-0.8,1.9c-0.6,1.3-1.2,2.4-1.5,3.4l-0.1,1.1
					l-0.7,0.9l-0.6,1.6c0,0.1,0,0.1,0,0.2c-0.4,1.3-0.6,2.4-0.9,3.8c-0.7,3.4-1.4,6.8-1.8,10.3l0,0.1l0.1,0.9l0,0.7l-0.2,0.5
					l0.1,0.3l-0.1,0.6c0,0.1,0,0.3,0,0.4l0.1,0.2c0.2,1.1,0.4,2.2,0.8,3.1c0.1,0.1,0.1,0.2,0.2,0.3l0.7-0.1c0.9-0.5,1.6-1.2,2.3-1.9
					l0.9-1.1l0.6-1l1.5-1.5c1.4-1.8,3-3.5,4.1-6c1.2-2.6,3.2-4.8,6.4-13.4l0,0.1c0.9-1.7,1.6-3.5,2.4-5.3l1.7-4.1
					c0.5-1.5,1.2-3,1.9-4.2c0.6-1.3,1.2-2.7,1.7-4.1l0.2-0.4l0.8-1.7l1.5-3.1l0.5-1.3l0.2-0.6l0.6-1.5l0.5-1.5l0.3-0.6l0.1-0.2
					l0.3-0.4l0-0.1l0.1-0.5l0.1,0l0-0.1l0-0.1l0.5-1.4l0.1-0.2c0.4-1.2,0.9-2.4,1.4-3.7l0.2-0.6l0.3-0.7l0.1-0.6l0.5-0.9l0.4-0.7
					L136.4,60.9z M130.8,44.8L130.8,44.8l1-1.1l0.2-0.4l0.2-0.1l0.1,0l0-0.2l0.3-0.3l0.1-0.2l0.3-0.1l1.6-1.8l0-0.2l-0.1,0l0-0.1
					l0.1,0l0.1-0.1l0.1-0.2l0.1-0.3l0.6-0.5l0.6-0.9l0.3-0.4l0.3-0.1l0.4-0.4l0.5-0.6l-0.1,0l0-0.2l0.2-0.1l0.1,0l0.1,0l-0.1,0.2
					l0.1-0.2l0.3-0.1l0.1-0.2l0.1,0l0.2-0.1l0.7-0.6l0,0.1l0-0.1l-0.4-0.3l-0.2-0.6l0.2-0.7l0.1-0.3l0.6-0.9l0.4-0.9l0.2-0.3l0-0.3
					l0.3-0.6l-0.1-0.5l-0.2-0.3l-0.2-0.1c-0.8,0.2-2.3,1.2-3.3,2.1l-0.4,0.4l-0.4,0.5l-0.6,0.7l-0.4,0.5l-0.4,0.3l-0.8,0.5l-0.8,0.7
					c-0.3,0.2-0.5,0.5-0.7,0.7c-0.9,0.9-1.8,1.9-2.7,3l-0.1,0.2l-0.4,0.5l-0.5,0.6l-0.3,0.5l-1,1.1l-1.1,1.4l-1,1.5l-0.9,1.5l0,0.1
					l-0.1,0.2l-0.2,0.6l-0.2,0.3l-0.9,1.9l-0.1,1.1l-0.1,0.2l-0.1,0.4l-0.1,0.3l0,0.2l0.1,0.2l0.1,0c0.3-0.1,0.5-0.2,0.8-0.4
					c0.4-0.2,0.8-0.5,1.1-0.7l0.1-0.2l0.5-0.2l0.1-0.2l0.6-0.7l0.6-0.4c0.4-0.5,0.9-0.9,1.2-1.3l0.2-0.3l0.1-0.2l0.3-0.2l0.5-0.5
					l0.1-0.2L130.8,44.8z"/>
				<path class="st0" d="M175.1,29.6l-0.1,0.6c0,0.1,0.1,0.3,0.1,0.5l-0.2,0.7l-0.3,0.8l-0.5,0.5l-0.5,0.8l-0.2,0.4l-0.2,0.4
					l-0.4,0.5l-0.1,0.1c-0.8,1.3-2,2.5-3.1,3.7l0,0.1l-0.2,0.1l-0.6,0.6l0,0.1l-0.1,0.2l-0.3,0.1c0,0.1,0,0.1-0.1,0.1l0.1,0.2
					l-0.3,0.1l-0.4,0.5l-0.1,0l-0.2,0.4l-0.4,0.2l-0.2,0.4l-0.4,0.4l-0.2,0.1l-0.7,0.3l-0.2,0.2l-0.4,0.2l-0.1,0
					c-0.9,0.7-1.7,1.3-2.6,1.8l-0.2,0.3l-0.2,0.1l-0.2,0.4l-0.2,0.1l-0.5,0l-0.5,0.1l-1.2,0.3l-1.2,0.2l0-0.1
					c-0.1,0-0.2,0.1-0.2,0.1c-0.4,0-0.7,0-1,0c-0.3-0.1-1.8-0.4-2-0.8l-0.2-0.6l-0.2,0.1l-0.2-0.4l0.1-1.3l0.2-1.2l0.2-0.5l0.6-1
					l0.4-0.4l0.1-0.2l0.9-1.1l0.7-1.2l0.1-0.4l0.2-0.3l1.1-1.5l0.3-0.4l0.3-0.1l0.1-0.2l0.4-0.5l0.1-0.2l0.1,0.1l1.2-1.6l0.2-0.4
					l0.2-0.1l0.5-0.5l0.3-0.6l0.4-0.7l0.8-0.6l0.7-0.9l0.4-0.4l0.5-0.5c0.5-0.6,1-1.2,1.5-1.6l-0.9,0.1c-0.4,0.2-0.8,0.4-1.2,0.5
					l-0.2,0.1l0,0.1l-0.2,0l-0.8,0.2c-0.6,0.2-1.2,0.5-2,0.7l-0.1,0l-1.5,0.5l-0.8,0l-0.5-0.2l-0.3-0.3l-0.1-0.5l0.3-0.9l0.5-0.3
					l0.6-0.3l0.6-0.2l0.6,0.1h1c1-0.3,2-0.5,3.2-0.6L166,25l1.1-0.2l1.2-0.5l0.2,0l1.1-0.4c0.2-0.1,0.3-0.3,0.5-0.5l0.5-0.5l0.4-0.4
					l0.2-0.1l0.3-0.3l0.5-0.2l0.6-0.2c0.4-0.2,0.9-0.4,1.3-0.4l0.4-0.2l0.2,0.1c0.3,0,0.5,0.1,0.8,0.2l1.8-0.7l0-0.1l0.7-0.4l1-0.3
					l1-0.6l0.4-0.2l0.6-0.2l1.3-0.3l0.5-0.2l0.8-0.1l0.1,0c0.3-0.1,0.6-0.2,0.8-0.3c0.3-0.1,0.7-0.3,1.1-0.4l0.2-0.1l0.1-0.1l0.1,0
					l0.2,0.1l0.4-0.1l0.4-0.2l0.5-0.1l0.6-0.1l0.1,0l0.4-0.2l0.4,0.1l0.2-0.1l0.2-0.1l0.5-0.1l0.3,0c0.8-0.1,1.5-0.1,1.9-0.1
					l0.3,0.1l0.3-0.1l0.3,0.2c0.4,0.1,0.8,0.3,1.3,0.4l0.1,0l0.2,0.1l0.4,0l0.3,0.3l0.4,0.3l0.1,0.2l-0.3,0.4l-0.1,0.5l-0.3,1.2
					l-0.2,0.5l0,0.1c0,0.1-0.1,0.2-0.1,0.2l-0.2,0.5l-0.4,0.2l-0.1-0.5l0.1-0.2l0-0.1c0-0.3,0.1-0.6,0.2-0.9l0-0.4l0.1-1.3
					c0-0.1-0.1-0.1-0.1-0.2l-0.3-0.3l-0.7-0.1l-0.6-0.2l-1,0c-1.5,0.1-3.3,0.5-4.4,0.8l-1,0.3l-0.8,0.3c-0.7,0.2-1,0.4-1.6,0.6
					c-2.8,1-4.7,1.7-6.6,2.5l-0.1,0.1l-0.5,0.3l-0.3,0.3l-1.1,0.2c-1,0.4-2,0.9-3.1,1.3l-0.5,0.3l-0.5,0.1l-1.1,0.4l-0.3,0.3
					c0.7,0,1.4,0.1,1.9,0.2l0.1,0l0.2,0.1l0.1,0l0.3,0.1l0.6,0.2l1,0.6l0.3,0.4l0.5,0.7l0.2,1.2C175.1,28.9,175.2,29.3,175.1,29.6z
					 M173.4,29.6l-0.1-0.4l0.1-0.6l-0.2-0.9l0-0.1l-0.5-0.6l-0.5-0.3l-0.5-0.2l-0.6-0.2l-0.5-0.1l-0.6,0l-0.6-0.2l-0.4,0
					c-0.1,0-0.1,0-0.1,0c-0.7,0.7-1.3,1.6-2.3,2.7l-0.5,0.6l-0.3,0.5l-2,2l-0.5,0.6l-0.4,0.4l-1.1,1.2l0,0.1l-0.3,0.3l-0.8,0.8
					l-0.6,0.7l-0.6,0.6l-0.3,0.3l-0.7,0.9l0,0.1l-0.5,1l-0.4,0.9l-0.2,0.5c-0.1,0,0,0.1-0.1,0.1c-0.3,0.6-0.5,1.3-0.6,1.9l0,0.1
					l0,0.3l0,0.4l0.1,0.4l0,0.1l0,0.2c0.2,0.5,0.5,0.9,0.8,1.1l0.1,0l0.5,0.2c0.1,0,0.3,0,0.4,0c2.2-0.4,2.6-0.8,4.5-2
					c0.8-0.5,1.7-1.1,2.5-1.8l0-0.1l0.2-0.1l0.7-0.6l0.4-0.7l0.9-0.9l0.2-0.1l0.1,0l1.6-1.9l0.1-0.2l0.1-0.1
					c0.4-0.5,0.8-1.1,1.2-1.7l0.1-0.3l0.1-0.2l0.3-0.4l0.3-0.6l0.1-0.4l0.2-0.1l0.1-0.3l0.1-0.2l0.1-0.2l0.1,0
					C173.1,31.1,173.4,30.3,173.4,29.6z M174.1,21.9c-0.5-0.1-1.3,0.4-1.9,0.8L174.1,21.9z"/>
			</g>
		</g>
		<g>
			<path class="st0" d="M178.7,116.1c-0.1,0-0.2-0.2-0.2-0.3l-0.2-0.1l-0.1-0.1l-0.1,0.1l0-0.1l0.1,0l-0.1-0.2l-0.1-0.2l0-0.1
				c-0.6-0.9-0.6-0.5-1-1.5l-0.1,0l-0.7-1.9l-0.1,0l0-0.1l-0.1-0.5l0.1,0l-0.1-0.2l-0.2-0.4l0-0.6l-0.1-0.4l0.1,0
				c-0.1-0.2-0.1-0.4-0.1-0.6c-0.1-0.2-0.1-0.3-0.1-0.5l-0.1-0.2l-0.1-1.4l-0.1-0.1l-0.2-0.1l-0.1-0.2l-0.1-0.1l-0.1,0l-0.1-0.4
				l-0.1,0l0-0.1l0.1,0l0-0.2l-0.1-0.2l0-0.1l0-0.1l0-0.5l0.2-0.5l0.1-0.3l0.1-0.1l0,0.1l0-0.2l0-0.8l-0.1-0.6l-0.1-0.3l0.2-0.5
				c0-0.1,0-0.1,0-0.2l-0.1-0.3l0-0.4l0.2-2.3l-0.1-0.5l0-0.3l-0.1-0.5l0-0.3l0-0.9l0.2-0.5l0.3-0.8c0-0.3,0.1-0.6,0.1-0.9l0-0.1
				l0.1-1.1l0-0.3l0.5-2.3l0-0.3l0.2-0.4l0.1-0.2l0.6-2.4l0.6-2l0.1-0.2l0.7-2.3l0.2-0.7l0.4-0.8c0-0.1,0-0.1,0-0.1l0.1-1.1l0.1-0.4
				l0.3-0.6l0.4-0.7l0.3-0.6l0.1-0.4l0.6-0.8l0.7-1.9l0-0.2l0.1-0.3l0.2-0.1l1.2-2.6l0-0.4l0-0.3l0.4-0.5l0.1-0.3l0.5-1l0-0.3l1-1.8
				l0.7-1.5l0.4-0.7l0-0.1c0.9-1.6,1.9-3.3,2.9-4.8l0.1-0.5l0.4-0.7l0.3-0.8l1.1-1.8l0.5-1.2l0.2-0.8l0.8-1.4l0.2-0.2l0.2-0.2
				l0.7-0.9l1.1-0.6l0.2-0.5l0.2-0.1l0.1-0.6l0.4-0.6l0.2-0.7l0.4-0.7l0.2-0.3l0.8-0.5l0.3-0.4l0-0.1l-0.1,0c0.1,0,0-0.1,0-0.1
				l-4.1,1.9l-0.2,0.3l-0.4,0.2l-0.3,0l-0.2,0.2l-0.6,0.2l-1,0.5l-0.1,0l-2,1.2l-1.2,0.8l-1.2,0.7l-0.2,0.1l-1.4,0.9l-0.4,0.3
				l-0.7,0.3l-0.1,0l-0.6,0.4l-0.7,0.5l-0.3,0.3l-2.1,1.3l0,0.1l-0.1,0l-0.7,0.4l-0.1,0.2l-2.4,1.5l-0.1,0l-0.4,0.2l-0.2,0.1
				l-0.7,0.5l-1.9,1.9l-1.1,0.6c-1.4,1.2-2.8,2.5-4.1,3.7l0.1,0l-0.4,0.5l-0.5,0.6l-0.1,0.2l-0.2,0.1l-0.3,0.3l0,0.1l-0.1,0
				l-0.4,0.4l-0.6,0.4l-0.8,0.8c0,0.1,0,0.1-0.1,0.2l-0.3,0.5l0,0.1l-0.1,0.1l0-0.1l-0.1,0l-0.1,0.2l-0.1,0.1
				c-0.6,0.7-1.3,1.5-2,2.3l-0.7,0.9l-0.2,0.2l-2,2.5l-0.7,1l-0.3,0.4l-0.5,0.6l-0.4,0.5l-0.2,0.2l-2.1,2.9l-0.1,0.2l-0.3,0.2
				l-2.1,2.6l-0.3,0.4l-0.1,0l-0.2,0.3l-0.1,0.3l-0.2,0.1l-0.2,0.1l-0.1-0.1l-0.1-0.2l0-0.3l0.4-0.2l1.1-1.5l0.4-0.4l0.2-0.4
				l0.2-0.2l0.4-0.4c0-0.1,0.1-0.2,0.2-0.2l0-0.1l0.3-0.3l0.1,0l0.2-0.3l0-0.2l0.2-0.2l0.1-0.2l0.7-1l0.2-0.1l0.1-0.3l0.5-0.6
				l0.2-0.1l0.3-0.4l0.3-0.3l1.9-2.6l0.2-0.2l0.9-1.1l0.3-0.3l0.6-0.7l0.2-0.2l0.7-1l0-0.1l0-0.1l0.2-0.1l0-0.1l0.1-0.3l0.1-0.1
				l-0.2,0.1l0-0.1l0.2-0.3l0.2-0.1l0.1,0.2l0.2-0.3l0.4-0.3l0.3-0.4l0.1-0.2l0.3-0.5l1-0.6l0.6-0.6l0.3-0.2l0.2-0.1
				c0.1,0,0.1-0.1,0.2-0.1l-0.1-0.1l0.1,0l0.4-0.4l0.2-0.5l0.3-0.3l0.2-0.4l0.3-0.5l0.2-0.2l0.6-0.3l0.2-0.3l0.3-0.2l0.5-0.3
				l0.2-0.1l0.5-0.6l0.5-0.4l0.3-0.6l0.2-0.2l0.5-0.5l0.1-0.4l0.1-0.1l0.5-0.1l0.4-0.2l0.3-0.1l1.1-1l0-0.1l0.2-0.2l0.4-0.2
				c1.4-1.1,2.9-2.3,4.5-3.5l0.4-0.3l0.6-0.6l0.2-0.2l0.3-0.1l0.2-0.2l0.1,0l0-0.1l0.7-0.4l0.1,0l2.2-1.4l0.4-0.4l0.8-0.3l1.5-0.9
				l0.2-0.2l0.8-0.5l0.3-0.3l2.1-1.1l0.2,0l2.4-1.3l0.4-0.2l0,0.1c0.2-0.1,0.4-0.2,0.7-0.3l0.4-0.3l0.2-0.1l0.3,0
				c0.2-0.1,0.4-0.2,0.6-0.2l0-0.1l0.1,0l3.2-1.3l0.6-0.4l0.2-0.3l0.2-0.1l0.3,0.1l0.3-0.4l0.5-0.9l0.2-0.3l0.3-0.6l0.2-0.3l0.1-0.5
				l0.2-0.3l0.7-0.4l0.5-0.1l1.5-0.8l1-0.4l0.4-0.3l0.1-0.2l0.2-0.1l0.1-0.4l0.5-1l0.7-0.4l0.4,0.1l0.2,0.2l0-0.1l1.8-1l1.8-0.8
				l0.2-0.1l0-0.1l0.1,0l-0.1,0.3l0.5-0.1l0.3,0.1l0.3,0.6l0.2,0.9l-0.7,1.1l-1.2,0.7l-0.4,0.2l-0.9,0.1l-1.1,0.1l0,0.1l-0.2,0.1
				l0-0.1l-0.2-0.2l-0.4,0.3l-0.3,0.1l-0.6,0.4l-0.2,0.1l0,0.1l-0.3,0.4l-0.3,0.1l-0.3,0.4l-0.8,0.3l-0.3,0.1l-2,1.8l1.3-0.5l0-0.1
				l0.2-0.1l-0.1,0l0-0.1l0.1,0l0.1,0l0.2-0.1l0.3-0.2l0.8-0.1l1-0.4l0.3,0l6.3-1.9l0.3-0.1l0.7-0.3l0.4-0.1l1-0.1l0.4-0.2l0.6-0.1
				l0.1,0c1.2-0.3,2.4-0.6,3.7-0.8l0.4-0.2l0.4-0.1l3.1-0.7l1.8,0.1l0.1,0c0.7-0.1,1.5-0.1,2.3-0.1l0.1,0l0.4-0.2l1-0.3l0.8-0.1
				l1,0.2l1.1-0.1l0.5,0l0.6,0.2l0.9,0.1l0.2,0.1c1.3,0.1,2.7,0.4,3.9,0.7l0.1-0.1l0.2,0.2c0.5,0.1,1,0.4,1.5,0.6l0.2-0.1l0.3,0.1
				l0.1,0.2l1.2,0.7c1.5,1,2.7,2.3,3.6,3.6l0.4,0.4l0.1,0.2l0,0.1l0.3,0.3l0.1,0.5l0.3,0.3l0.3,0.5l0.1,0.3l0,0.7l0.2,0.3l0,0.4
				l0,0.2c0.1,0.5,0.2,1,0.3,1.4l0.1,0.5l0.3,0.6l0.1,0.3l0.2,0.4l0.2,1.2l0,0.5l-0.2,1.2l-0.2,1.2l0.1,0l0.1,0.5l-0.1,0.1l0,0.3
				l0,0.7l-0.5,1.1l-0.1,1.6l-0.5,0.9l-0.2,0.1c-0.3,1.5-0.8,3.1-1.3,4.5l0,0.3l-0.2,0.7l-0.5,0.9l-0.2,1.1l-0.2,0.5l-0.3,0.6
				l-0.7,1.1l-0.2,0.5l-0.5,0.8l-0.9,1.8l-0.1,0.3l0.1,0.2l-0.2,0.1l-0.2,0.1c-0.7,1.4-1.5,2.7-2.3,4l-0.1,0.4l-0.3,0.8l-0.7,0.8
				l-0.4,1l-0.2,0.4l-0.4,0.5l-0.5,0.6l-0.6,0.9l-1.1,1.1c-0.3,0.3-0.5,0.7-0.7,1.1l-0.1,0.3l0,0.1l-0.3,0.1l-1.5,2l0,0.2l-0.4,0.2
				c-1.8,2.3-3.7,4.6-5.7,6.8l-0.3,0.3l-0.2,0.2l-0.7,0.7l-3.5,3.8c-0.4,0.4-0.9,0.9-1.3,1.3l0,0.1l-0.3,0.3l-0.5,0.6l-0.3,0.3
				l-1.2,1.1l-0.6,0.5l-0.9,0.6c-1.3,1.2-2.6,2.3-3.9,3.4l-0.3,0.4l-0.8,1.1l-2,1.2l-1,1l-0.4,0.4l-0.8,0.4l-1,0.5l-0.6,0.3l-0.1,0
				l0,0.1c-1.7,1.1-4.1,2.5-6.7,3.8l-0.9,0.6l-0.7,0.3l-0.7,0.1l0,0.1l0,0.1l-0.4,0.2l0,0.1l-0.1-0.1l-0.4,0.2l-0.1,0l-0.1,0
				l-0.4,0.2l-0.6,0l-0.2,0.1l-0.2-0.1l0.1,0l-0.4,0c-1.3,0.4-2.5,0.7-3.6,1l-0.4,0.2l-0.1,0l-0.4,0.2l-0.4,0l0,0.1l-0.2,0l-0.6,0
				l-0.1,0l0.2,0.1l-0.1,0.1l-0.4,0l-0.8,0.1l-0.8-0.2l-0.1,0l-0.1,0.1l-0.4-0.1l-0.3-0.1l0.1,0.2l-0.2-0.1l-0.1-0.2l-0.7-0.1
				l-0.2-0.3l-0.1-0.1l-0.5,0.1l-0.2-0.1l-0.5,0.1l-0.3-0.1l-0.4,0.2l-0.2,0l-0.4-0.3l-0.5-0.2l-1.1-0.5l-1.1-0.7l-0.4-0.8
				c-0.2-0.1-0.4-0.3-0.5-0.5l-0.1,0l-0.4-0.2l-0.1,0L178.7,116.1z M236.1,81.9l0.5-0.9l0.2-0.6l0.5-0.7l0.5-0.6l1.2-2.1l0.2-0.5
				l0.9-1.3l0-0.6l0.9-1.7l0.4-0.9l1.4-2.5l1.2-2.5l0.3-0.6l0.6-1.7l0.5-1.9l0.7-1.4l0.2-0.4c0.3-1,0.8-2.1,0.9-3.1l-0.1-0.5
				l0.1-0.9l0-0.6l0.4-1.1c0-0.1,0-0.1,0-0.1l-0.5-1.9l0-0.6l0.1-0.8L247,50l0-0.8l-0.1-0.5l0-0.9l0-0.7l-0.2-0.1l-0.4-0.4l-0.2-1.1
				l-0.1-0.5l-0.2-0.6l-0.4-0.5l-0.3-0.4l-0.1-0.4c-0.5-0.6-1-1.2-1.6-1.8l-1.5-1.1l-0.8-0.5l-0.5-0.4l-0.1,0
				c-0.2-0.1-0.3-0.2-0.5-0.2l-0.3-0.2l-0.1,0l0,0.1l0,0.1l0-0.1l-0.7,0l-0.6-0.1l-0.3-0.1l-0.7-0.4l-0.3-0.3
				c-1.5-0.3-3.6-0.3-5.2-0.3l-1.1,0l-0.1,0l-0.6,0l-0.3,0.1l-0.7,0.1l-0.2,0.1l-1.8,0.2l-2.3,0.3l-1.4,0.2l-0.5,0.1l-0.9,0.2
				l-0.4,0l-1.1,0.2l-0.7,0.1l-1.1,0.1c-1.6,0.4-3.1,0.8-4.4,1.1l-1.4,0.4l-1.2,0.7l-1.1,0l-0.3,0l-3.3,1l-0.2,0.1l-1.1,0.3
				l-1.7,0.6l-0.5,0.3l-0.6,0l-1.1,0.4l-1.1,1.2l0,0.1l-0.8,1.3l-1.4,2.2l-0.5,0.7l-0.4,0.7l-1.7,2.2l-1.4,2.7l-0.8,0.9l-0.9,1.7
				l-0.5,0.5l-0.8,1.3l-0.5,0.5l-1.2,2.1l-0.2,0.7l-0.4,0.9l-0.7,0.7l-0.3,0.4l0,0.1l-0.1,0.4l-0.4,0.4l-0.2,0.7l-0.1,0l-0.8,1.8
				l-0.1,0.5l-0.2,0.1c-0.3,0.3-0.4,0.7-0.5,1l-0.2,0.9l-0.4,0.2l-0.5,1l-0.5,1.5l-0.1,0.1l-1,2.6l-0.1,0.2l-0.2,0.5l-0.3,0.4
				l-0.7,1.7l-0.3,1.1l-0.4,0.9l0,0.1l-0.5,1.2l-0.1,0.4l-0.1,0.6l-0.1,0l-0.1,0.5l-0.1,0.6l-0.1,0.2l0,0.2l-0.8,1.7l0.1,0.2l-0.1,0
				l-0.2,0.5l0,0.2l-0.3,0.8l-0.3,1.3l0,0.3l-0.1,1.2l-0.3,1l-0.3,0.7l-0.1,0.8c-0.2,1.4-0.6,1-0.7,3.2l0,0.1l0,0.1
				c-0.1,0.3-0.1,0.6-0.1,0.8l0,0.1l0.2,0.4l-0.6,3l0.1,0.1l-0.2,0.5c0,0.4-0.1,0.8,0,1.3l0.1,1.9l0,0.1c0,1,0.7,1.9,0.9,2.9
				l0.3,1.2l0,0.2l0.1,0.3l0,0.2l0.1,0.2l0.1,0.3l0,0.1l0.2,0.4l0.1,0.4l0.1,0.2l0.1,0.5c0.3,0.8,0.7,1.5,1.2,2.2l0.6,0.3l0.4,0.6
				l0.1,0.2l1.6,0.5l0.7,0.6l0.1,0.2l0.5,0.2l1.1,0.3l0.6,0l0.6,0l0.6,0.1l0.3-0.2l0.4-0.2l0.2,0.1l0.3,0.1l0.6,0.3l1.4,0.4l0.9,0.1
				l0.1,0l0.5-0.1l0.8,0.1l0.3,0l1.6-0.4l0.9-0.5l0.7-0.3l0.2-0.3l0.2-0.1l0.1-0.1l0.2,0l0.4,0.1l1.2-0.3l0.1-0.1l0.1,0l0.3-0.2
				l0.8-0.6l0.4-0.3l1.4-0.5l0.8-0.5l0.7-0.5l0.6-0.2l1.1-0.4l1.3-0.7l0.1,0c1.5-1,2.9-1.8,3.8-2.5c1.1-0.8,2.2-1.8,3.2-2.7l0-0.1
				l0.4-0.2l1.2-1.1l0.4-0.7l1-0.8l1.3-1.1l0.7-0.6c2.5-2.4,5.1-4.9,7.5-7.7l0.2-0.5l0.6-0.7l0.3-0.6l0.3-0.6l0.5-0.3l0.8-0.8
				l0.6-0.4l0.2-0.5l0.6-0.6l0.5-0.6l1.4-1.7l2.7-3.5l1.1-1.5L236.1,81.9z"/>
			<path class="st0" d="M253.2,74.2l0.1-0.4l0-0.1l0.2-0.7l0.2-0.9l0.4-1.2l0.1-0.4l0.9-2.2l0.2-0.6l0.1-0.3l0.4-1.6l0.4-1.2
				l0.3-1.1l0.1-0.8l-0.1-0.4l-0.1,0l0-0.1l0.1-0.2l-0.4-1l-0.2-1.3l0-0.4l0.1-1.6l1-1.1l0.7-0.3l0.8,0.2l0.2,0.4l0.1,0.5l0.2-0.2
				l-0.1,0.2l-0.1,0l-0.1,0.2l0,0.4c0,0.1,0.1,0.1,0.1,0.2c0.1,0.8-0.2,1.7-0.4,2.5l0.1,1.8l-0.3,0.8l-0.3,0.4l-0.4,1.1l-0.2,0.9
				l-0.2,0.7l-0.1,0.7l-0.4,0.5l-0.1,0.3l0,0.4l0,0.1l-0.2,0.2l-0.9,2.2l0,0.5l-0.5,1.2l-0.1,1l-0.8,2.5l-0.1,0.6l-0.4,1.2l0,0.1
				l0,0.4l-0.1,0.1l-0.1,0.4l-0.1,0.6c0.3-0.3,0.3-0.6,0.5-1l0.1-0.3l0-0.1l0.1-0.4l0.3-0.4l0.1-0.2l0.3-0.6l0.3-0.4l0.4-0.7
				l0.3-0.3c0.6-1,1.3-2.1,2-3.1l0.2-0.5l0.1-0.2l0.5-0.5l0.3-0.4l0.8-1l0.1-0.2l1.2-1.4l0.3-0.2c0.5-0.4,0.9-0.9,1.4-1.3
				c0.3-0.3,1.2-0.9,2-1.1l0-0.1l1.2-0.3l0.6,0.4l0.8,0.4l0.5,1l0.1,0.5l0.1,0.7l0.1,0.8l0.1,0.5l0.1,0.5l0,1.7l0,0.1l0.6,0.5
				l0.4,0.7l0.2,0.1l-0.1,0.2l0,0.5l0.1,0.5l0.4,0.4l0.3,0.2l0.6,0.3c0.9-0.2,2-0.6,3.1-1.1l1.2-0.9l0.4-0.2l0.8-0.5l0.4-0.2
				l1.1-0.8l0.8-0.8l0.6-0.2l0.5-0.3l1-0.7c0.7-0.5,1.4-1.1,2-1.7l0.5-0.6l0.3-0.2l1.3-1.2l0.4-0.4l0.4-0.6l0.5-0.5l1.6-1.3l1.9-1.9
				l0.2-0.3l0.8-0.8l0.2-0.1l0-0.1l0.2-0.1l0.5-0.5l0.1-0.2l0.4-0.1l0.3,0.2l0.1,0.3l-0.2,0.2l-0.3,0.2c-0.9,0.9-1.7,1.9-2.6,2.8
				l-0.4,0.7l-0.4,0.3l-0.4,0.4l-0.1,0l-0.6,0.7l-0.1,0.2l-0.2,0.1c-0.1,0-0.1,0.1-0.2,0.2l-0.1,0.2l-0.3,0.2l-0.1,0
				c-0.5,0.6-1.2,1.1-1.8,1.7l-0.9,0.9l-2.4,2.1l-0.2,0.1l0,0.1l-0.7,0.9l-0.6,0.6l-0.9,0.4l-0.8,0.8l-0.4,0.3l-0.5,0.3l-0.7,0.3
				l-0.4,0.2l-0.2,0.2l-0.2,0.1l-0.2,0.1c-0.5,0.3-1,0.5-1.5,0.7l-0.8,0.3l-0.3,0.3l-0.2,0.1l-0.6,0l-0.4,0.2l-0.5,0.1l-0.1,0
				c-0.8,0.3-1.6-0.2-2.4-0.3c-0.4-0.1-0.8-0.3-1.1-0.6l-0.1-0.2c-0.2-0.3-0.2-0.6-0.3-1l-0.2-0.6l0.1-0.8l0-1.2l-0.1,0l0.1-0.2
				l0-2.5l-0.1,0l-0.2-0.1l0.1-0.5c-0.1-1-0.5-1.7-1.4-1.7c-0.4,0-0.6-0.1-1.1,0.2l-0.6,0.5l-0.4,0.5c-0.1,0,0,0.1-0.1,0.1l-1.1,1.3
				l-0.1,0.2l-0.2,0.2l-0.8,1.3l-0.4,0.4l0,0.4l-1.6,2l-0.2,0.1l-0.4,0.5L258,74l-0.1,0.6l-0.4,0.5l-0.2,0.2l-0.4,0.5l-0.4,0.5
				l-0.2,0.3l-0.1,0.6l-0.5,0.7l-0.5,0.6c-0.7,1.2-1.4,2.4-2.1,3.7l-0.2,0.5l-0.1,0l-0.4,0.7c-0.1,0-0.1,0-0.1,0.1l0,0.1l-0.2,0.1
				l0.1,0.1l0,0.1l-0.2-0.1l-0.1,0.3l-0.3,0.2L251,84l-0.4-0.5l-0.3-1.3l0.2-1.2l0.2-0.5l0.5-0.8l0.7-0.6l-0.1-0.2l0.1,0l0.1,0
				l-0.1-0.3l0.2-0.2l0.1-0.6l0.1-0.9l0.2-0.5l0-0.4l0.6-1.7L253.2,74.2z"/>
			<path class="st0" d="M304.6,56.8l-0.1,0.6c0,0.1,0.1,0.3,0.1,0.5l-0.2,0.7l-0.3,0.8l-0.5,0.5l-0.5,0.8l-0.2,0.4l-0.2,0.4
				l-0.4,0.5l-0.1,0.1c-0.8,1.3-2,2.5-3.1,3.7l0,0.1l-0.2,0.1l-0.6,0.6l0,0.1l-0.1,0.2L298,67c0,0.1,0,0.1-0.1,0.1l0.1,0.2l-0.3,0.1
				l-0.4,0.5l-0.1,0l-0.2,0.4l-0.4,0.3l-0.2,0.4l-0.4,0.4l-0.2,0.1l-0.7,0.3l-0.2,0.2l-0.4,0.2l-0.1,0c-0.9,0.7-1.7,1.3-2.6,1.8
				l-0.2,0.3l-0.2,0.1l-0.2,0.4l-0.2,0.1l-0.5,0l-0.5,0.1l-1.2,0.3l-1.2,0.2l0-0.1c-0.1,0-0.2,0.1-0.2,0.1c-0.4,0-0.7,0-1,0
				c-0.3-0.1-1.8-0.4-2-0.8l-0.2-0.6l-0.2,0.1l-0.2-0.4l0.1-1.3l0.2-1.2l0.2-0.5l0.6-1l0.4-0.4l0.1-0.2l0.9-1.1l0.7-1.2l0.1-0.4
				l0.2-0.3l1.1-1.5l0.3-0.4l0.3-0.1L289,62l0.4-0.5l0.1-0.2l0.1,0.1l1.2-1.6l0.2-0.4l0.2-0.1l0.5-0.5l0.3-0.6l0.4-0.7l0.8-0.6
				L294,56l0.4-0.4l0.5-0.5c0.5-0.6,1-1.2,1.5-1.6l-0.9,0.1c-0.4,0.2-0.8,0.4-1.2,0.5l-0.2,0.1l0,0.1l-0.2,0l-0.8,0.2
				c-0.6,0.2-1.2,0.5-2,0.7l-0.1,0l-1.5,0.5l-0.8,0l-0.5-0.2l-0.3-0.3l-0.1-0.5l0.3-0.9l0.5-0.3l0.6-0.3L290,53l0.6,0.1l1,0
				c1-0.3,2-0.5,3.2-0.6l0.7-0.3l1.1-0.2l1.2-0.5l0.2,0L299,51c0.2-0.1,0.3-0.3,0.5-0.5L300,50l0.4-0.4l0.2-0.1l0.3-0.3l0.5-0.2
				l0.6-0.2c0.4-0.2,0.9-0.4,1.3-0.4l0.4-0.2l0.2,0.1c0.3,0,0.5,0.1,0.8,0.2l1.8-0.7l0-0.1l0.7-0.4l1-0.3l1-0.6l0.4-0.2l0.6-0.2
				l1.3-0.3l0.5-0.2l0.8-0.1l0.1,0c0.3-0.1,0.6-0.2,0.8-0.3c0.3-0.1,0.7-0.3,1.1-0.4l0.2-0.1l0.1-0.1l0.1,0l0.2,0.1l0.4-0.1l0.4-0.2
				l0.5-0.1l0.6-0.1l0.1,0l0.4-0.2l0.4,0.1l0.2-0.1l0.2-0.1l0.5-0.1l0.3,0c0.8-0.1,1.5-0.1,1.9-0.1l0.3,0.1l0.3-0.1l0.3,0.2
				c0.4,0.1,0.8,0.3,1.3,0.4l0.1,0l0.2,0.1l0.4,0l0.3,0.3l0.4,0.3l0.1,0.2l-0.3,0.4l-0.1,0.5l-0.3,1.2l-0.2,0.5l0,0.1
				c0,0.1-0.1,0.2-0.1,0.2l-0.2,0.5l-0.4,0.2l-0.1-0.5l0.1-0.2l0-0.1c0-0.3,0.1-0.6,0.2-0.9l0-0.4l0.1-1.3c0-0.1-0.1-0.1-0.1-0.2
				l-0.3-0.3l-0.7-0.1l-0.6-0.2l-1,0c-1.5,0.1-3.3,0.5-4.4,0.8l-1,0.3l-0.8,0.3c-0.7,0.2-1,0.4-1.6,0.6c-2.8,1-4.7,1.7-6.6,2.5
				l-0.1,0.1l-0.5,0.3l-0.3,0.3l-1.1,0.2c-1,0.4-2,0.9-3.1,1.3l-0.5,0.3l-0.5,0.1l-1.1,0.4l-0.3,0.3c0.7,0,1.4,0.1,1.9,0.2l0.1,0
				l0.2,0.1l0.1,0l0.3,0.1l0.6,0.2l1,0.6l0.3,0.4l0.5,0.7l0.2,1.2C304.7,56.1,304.7,56.4,304.6,56.8z M303,56.7l-0.1-0.4l0.1-0.6
				l-0.2-0.9l0-0.1l-0.5-0.6l-0.5-0.3l-0.5-0.2l-0.6-0.2l-0.5-0.1l-0.6,0l-0.6-0.2l-0.4,0c-0.1,0-0.1,0-0.1,0
				c-0.7,0.7-1.3,1.6-2.3,2.7l-0.5,0.6l-0.3,0.5l-2,2l-0.5,0.6l-0.4,0.4l-1.1,1.2l0,0.1l-0.3,0.3l-0.8,0.8l-0.6,0.7l-0.6,0.6
				l-0.3,0.3l-0.7,0.9l0,0.1l-0.5,1l-0.4,0.9l-0.2,0.5c-0.1,0,0,0.1-0.1,0.1c-0.3,0.6-0.5,1.3-0.6,1.9l0,0.1l0,0.3l0,0.4l0.1,0.4
				l0,0.1l0,0.2c0.2,0.5,0.5,0.9,0.8,1.1l0.1,0l0.5,0.2c0.1,0,0.3,0,0.4,0c2.2-0.4,2.6-0.8,4.5-2c0.8-0.5,1.7-1.1,2.5-1.8l0-0.1
				l0.2-0.1l0.7-0.6l0.4-0.7l0.9-0.9l0.2-0.1l0.1,0l1.6-1.9l0.1-0.2l0.1-0.1c0.4-0.5,0.8-1.1,1.2-1.7l0.1-0.3l0.1-0.2l0.3-0.4
				l0.3-0.6l0.1-0.4l0.2-0.1l0.1-0.3l0.1-0.2l0.1-0.2l0.1,0C302.6,58.2,302.9,57.5,303,56.7z M303.6,49c-0.5-0.1-1.3,0.4-1.9,0.8
				L303.6,49z"/>
		</g>
	</g>
</g>
</svg>
